<?xml version="1.0" encoding="utf-8"?>
<!-- Generator: Adobe Illustrator 22.0.0, SVG Export Plug-In . SVG Version: 6.00 Build 0)  -->
<svg version="1.1" id="Layer_1" xmlns="http://www.w3.org/2000/svg" xmlns:xlink="http://www.w3.org/1999/xlink" x="0px" y="0px"
	 viewBox="0 0 1292.3 500" style="enable-background:new 0 0 1292.3 500;" xml:space="preserve">
<style type="text/css">
	.st0{fill:#fff;}
	.st1{fill:#fff;}
	.st2{fill:#fff;}
</style>
<g>
	<path class="st1" d="M729.8,87c-3.1-0.2-4.7-0.4-6.2-0.4c-207.8,0-415.6,0-623.5,0c-3.4,0-5.3,0.8-6.7,4.3c-2.6,6.8-8.1,11-15,12.9
		c-12.1,3.4-24.3,3.8-36.3-0.7c-7.3-2.8-12.1-8-14.4-15.5c-2.6-8.7-2.5-17.5,0.4-26c3.8-11,12.6-16,23.4-16.4
		c8.7-0.3,17.5,1.1,26.1,2.6c7.6,1.3,12.9,6.2,15.4,13.5c1.4,4,3.5,4.7,7.3,4.7c110.3-0.1,220.7-0.1,331-0.1c109,0,218,0,327,0.1
		c8.4,0,16.3-1.3,24.4-4.2c35.3-12.9,71.9-19.1,109.5-16.4c43.3,3.1,83.6,15.1,117.1,44.3c23.7,20.7,34.1,47.5,33.4,78.7
		c-0.1,4.4-1.2,8.9-2.3,13.3c-0.3,1.1-2.2,2.7-3.3,2.7c-13,0.2-26,0.1-39,0.2c-3.7,0-3.2-2.3-2.9-4.8c1.9-13.3,2.2-26.6-0.7-39.8
		c-5.7-26.9-21.7-46.3-44.8-60.4c-27.9-17.1-58.6-21.6-90.5-18.9c-52.1,4.5-96,26.2-130.2,66c-13.8,16-24,34.7-27.8,55.3
		c-8,42.7,0,82,48.8,110c14.3,8.2,30,12.8,46.2,15.6c3.9,0.7,5.7-0.4,6.6-4.4c7.3-35.2,14.8-70.4,22.3-105.6c1.3-6,1.2-6-5.1-6
		c-32.5,0-65-0.1-97.5,0.1c-4.5,0-6.1-1-5.9-5.9c0.5-8.7,0.1-8.7,9-8.7c32.7,0,65.3-0.1,98,0.1c4.5,0,6.3-1.3,7.2-5.9
		c5.3-26,11-51.8,16.3-77.8c0.9-4.2,2.4-5.9,6.9-5.7c8.5,0.4,17,0.2,25.5,0.1c3.8-0.1,5.3,0.6,4.3,5.1c-5.8,26.5-11.2,53.2-17,79.7
		c-1.1,5.2,1.7,5,5.1,5.3c36.1,3.1,69.4,14.3,99,35.5c30.6,22,44.8,51.9,42.7,89.6c-0.2,4.2-1.6,5.8-6,5.7c-11.3-0.3-22.7-0.3-34,0
		c-4.8,0.1-6-1.4-5.6-6c1.6-17.4-0.4-34.3-8.1-50.2c-11.5-23.7-30.6-39.4-54.4-49c-12.1-4.9-25.2-7-37.9-10.4
		c-3.4-0.9-5.1,0.1-5.9,3.8c-7.4,35.5-15.1,71.1-22.6,106.6c-1.2,5.7-1,5.9,4.9,5.9c31.8,0,63.7,0.1,95.5-0.1c4.5,0,7.2,0.6,6.2,5.9
		c-0.1,0.5,0.1,1,0.1,1.5c0.4,7.3,0.4,7.3-7.2,7.3c-32.5,0-65,0.1-97.5-0.1c-4.6,0-6.6,1.1-7.6,6c-5.2,26.1-11,52.2-16.4,78.3
		c-0.8,3.8-2.3,5.3-6.3,5.2c-9-0.3-18-0.1-27,0c-3.4,0-4.3-1-3.5-4.5c5.9-27,11.4-54.1,17.3-81.1c1.2-5.5-2.3-4.8-5.4-5.1
		c-34.6-3.3-66.3-14.5-94.8-34.3c-25.9-18-41.8-42.2-44.2-74.2c-2-27,6.3-51.3,20.7-73.7c13.1-20.4,30.8-36.2,50.7-49.6
		C725.9,89.8,727.2,88.8,729.8,87z"/>
	<path class="st1" d="M343.5,359.2c5.1,6.5,10,12.9,15,19.1c2,2.5,0.3,3.8-1.2,5.4c-13.8,14.4-30.4,24.2-49.4,30
		c-31.1,9.6-62.4,11-93.3,0.2c-34.4-12-56.8-37-70.1-70.1c-12.3-30.4-13.5-62.2-9-94.3c3.6-25.7,12.8-49.2,28.8-69.8
		c20.8-26.7,48.2-39.9,81.9-41.2c18.4-0.7,36.2,2,53,9.8c16.4,7.7,29.5,19,37.7,35.6c6.5,13.3,13.4,26.4,16.4,41.1
		c0.9,4.2,1.3,8.5,2,12.8c0.6,3.5-2.1,4.2-4.3,5.1c-24.3,9.9-48.7,19.7-73,29.5c-27.6,11.2-55.1,22.4-82.7,33.5
		c-2.1,0.9-4,1.4-3.4,4.4c6.2,31.2,21,56.8,49.9,71.5c29.7,15.1,58.5,9.8,85.2-8.8C332.7,369.1,337.6,364.1,343.5,359.2z
		 M186.1,281.2c2.3-0.7,3.6-0.9,4.7-1.4c32.1-13.3,64.2-26.6,96.3-39.9c8.1-3.4,11.8-9.9,12.1-18.5c0.7-20.1-9.4-34.6-24.5-46.1
		c-13.3-10.2-28.3-11.8-44-6.2c-14.8,5.3-24.1,16.6-31.5,29.9c-9.7,17.4-11.6,36.7-13,55.9C185.6,263.3,186.1,271.8,186.1,281.2z"/>
	<path class="st1" d="M1251.1,359.2c5.2,6.7,10.3,13,15.1,19.6c0.6,0.9-0.4,3.7-1.4,4.8c-15.3,16.5-34.5,26.4-56,32.1
		c-23.4,6.2-47,7.4-70.8,2.6c-35.3-7.1-60.6-27.7-78.3-58.3c-12.6-21.9-17.7-45.9-18.8-70.7c-1.1-26.9,1.9-53.3,12.6-78.2
		c12-27.9,29.6-51.6,58.6-63.2c40.2-16.1,79.1-13.9,114.6,13.4c4.5,3.5,8.7,8,11.7,12.9c11.6,19,21.5,38.6,24.1,61.2
		c0.6,4.8-1.1,6.4-4.9,8c-44,17.7-87.9,35.4-131.8,53.2c-7.9,3.2-15.8,6.3-23.5,9.7c-1.3,0.6-3,2.9-2.8,4.1
		c5.9,31,20.7,56.6,49.3,71.3c29.6,15.3,58.4,10.2,85.3-8.2C1240,369.4,1245.1,364.3,1251.1,359.2z M1093.7,281.3
		c2.5-0.9,4.1-1.3,5.5-1.9c31.8-13.1,63.6-26.3,95.4-39.5c8.1-3.4,11.9-9.8,12.2-18.4c0.8-20.1-9.3-34.7-24.4-46.2
		c-16.7-12.7-38.8-12.4-55.8,0c-12.2,8.9-19.5,21.2-24.9,34.8c-5.7,14.5-6.9,29.8-7.9,45.1C1093.3,263.5,1093.7,272,1093.7,281.3z"
		/>
	<path class="st1" d="M593.3,190.2c-6.1-4.3-10.9-8.1-16-11.3c-31.5-19.3-81.9-16-108.7,24.1c-14.7,22-21.7,46.2-22.6,72.4
		c-0.7,21.4,1.1,42.3,9.9,62.1c10.7,24.2,28,41.6,54.1,48.7c20.5,5.5,40.1,1.8,58.3-8.3c8.6-4.8,16.5-11,25.3-17
		c4.9,7.3,10.2,15.3,16.2,24.4c-10.2,6.6-19.8,13.7-30.3,19.3c-31.5,16.8-65.1,20.8-99.8,13c-34.7-7.8-58.6-29.7-73.9-61.2
		c-13.1-26.9-15.9-55.7-13.5-85.2c2.2-27.8,10.6-53.4,27.5-75.9c23.6-31.3,55-49,93.8-53.8c25.6-3.2,50.9-1.1,75.8,5.4
		c1.5,0.4,3.7,2.4,3.7,3.6C593.4,163.2,593.3,176,593.3,190.2z"/>
	<path class="st1" d="M31.2,143.4c0.6-0.1,2-0.3,3.5-0.3c16,0,32,0.1,48-0.1c4.1-0.1,5.3,1.2,5.4,5.3c0.3,38.5,0.7,76.9,1.2,115.4
		c0.6,49.1,1.3,98.3,1.9,147.4c0,2,0,3.9,0,6.2c-20.7,0-40.9,0-60.8,0C37.8,326,35.8,235,31.2,143.4z"/>
	<path class="st1" d="M1010,326.2c-3.6,8.2-6.5,16.3-10.5,23.8c-15.1,28.5-38.4,49.1-65.6,65.6c-31.2,18.8-65,30.2-100.8,36.9
		c-24.3,4.5-48.4,1.8-72.7,2.6c-39.2-7.6-77-18.3-106.5-47.4c-23.7-23.4-32.4-52.1-28-84.9c0.6-4.7,2.3-6.8,7.6-6.6
		c11.1,0.5,22.3,0.3,33.5,0.1c4.7-0.1,5.6,1.4,4.9,5.8c-4.2,28.6,0.5,55.3,19.9,77.8c16.9,19.6,38.6,31.7,63.8,36.8
		c60.6,12.2,114.6-3,162-41.9c21.2-17.4,36.2-39.3,44.9-65.5c0.6-1.7,3-4,4.6-4c13.3-0.3,26.7-0.1,40-0.1
		C1007.6,325.2,1008.1,325.5,1010,326.2z"/>
</g>
</svg>
